<svg xmlns="http://www.w3.org/2000/svg" viewBox="0 0 1440 400" preserveAspectRatio="none" fill="none">
  <path fill="#C45A32" d="M0 400V310 L100 302 L220 248 L360 285 L500 215 L640 268 L780 195 L920 255 L1060 175 L1200 238 L1340 205 L1440 218V400H0Z"/>
  <path fill="#7CB356" fill-opacity="0.75" d="M0 400V340 L100 332 L220 300 L360 318 L500 285 L640 310 L780 288 L920 308 L1060 292 L1200 312 L1340 298 L1440 302V400H0Z"/>
  <path fill="#FFF4E8" fill-opacity="0.72" d="M220 248 L360 285 L500 215 L640 268 L780 195 L920 255 L1060 175 L1200 238 L1340 205 L1440 218 L1440 258 L1340 248 L1200 262 L1060 248 L920 268 L780 248 L640 268 L500 248 L360 278 L220 248Z"/>
</svg>
