<svg xmlns="http://www.w3.org/2000/svg" viewBox="0 0 1440 400" preserveAspectRatio="none" fill="none">
  <path fill="#100e0c" d="M0 400V335 L90 328 L200 255 L340 310 L480 220 L620 295 L760 200 L900 285 L1040 190 L1180 275 L1320 240 L1440 255V400H0Z"/>
  <path fill="#FFFFFF" fill-opacity="0.98" d="M200 255 L248 285 L295 255 L340 310 L385 275 L430 245 L480 220 L528 252 L575 225 L620 295 L665 258 L710 228 L760 200 L808 235 L855 208 L900 285 L945 248 L990 218 L1040 190 L1085 225 L1132 198 L1180 275 L1225 238 L1275 215 L1320 240 L1440 255 L1440 298 L1320 288 L1275 268 L1225 288 L1180 268 L1132 288 L1085 268 L1040 288 L990 268 L945 288 L900 268 L855 288 L808 268 L760 288 L710 268 L665 288 L620 268 L575 288 L528 268 L480 288 L430 268 L385 288 L340 268 L295 288 L248 268 L200 255Z"/>
  <path fill="#F0B060" fill-opacity="0.55" d="M480 220 L620 295 L760 200 L900 285 L1040 190 L1180 275 L1320 240 L1440 255 L1440 272 L1320 262 L1180 282 L1040 262 L900 282 L760 262 L620 282 L480 262Z"/>
</svg>
