<svg xmlns="http://www.w3.org/2000/svg" viewBox="0 0 1440 400" preserveAspectRatio="none" fill="none">
  <path fill="#6E9FD4" fill-opacity="0.85" d="M0 400V280 L120 268 L240 290 L380 255 L520 275 L660 240 L800 262 L940 228 L1080 250 L1220 235 L1360 248 L1440 242V400H0Z"/>
  <path fill="#A8D4F5" fill-opacity="0.65" d="M240 290 L380 255 L520 275 L660 240 L800 262 L940 228 L1080 250 L1220 235 L1360 248 L1440 242 L1440 278 L1360 282 L1220 268 L1080 278 L940 258 L800 278 L660 258 L520 278 L380 262 L240 290Z"/>
</svg>
